<?xml version="1.0" encoding="UTF-8"?><svg id="Layer_2" xmlns="http://www.w3.org/2000/svg" viewBox="0 0 434.69 369.33"><defs><style>.cls-1{fill:none;}.cls-2{fill:#ffbcab;}.cls-3{fill:#ff3f20;}</style></defs><g id="Layer_1-2"><rect class="cls-1" width="434.69" height="369.33"/><g id="balao"><path class="cls-2" d="M416.71,194.17C410.8,33.67,244.99-15.55,113.15,40.33,31.86,74.98,13.98,169.58,33.76,250.96c1.53,7.29,2.93,14.89,1.52,22.18-1.95,10.55-9.27,17.75-14.75,26.97-5.37,9.17-8.03,19.67-9.38,30.15-.75,5.71-1.3,12.79-.65,17.69,1.09,6.65,6.05,1.28,8.74-.89,4.88-4.58,12.1-10.15,19.04-12.68,17.72-7.03,38.22-7.2,57.18-6.92,93.39,2.52,192.49,20.41,277.79-28.06,22.38-12.94,33.72-34.47,38.64-59.02,3.1-15.19,4.98-30.62,4.82-46.14v-.06Z"/></g><g id="hello_sales"><path class="cls-3" d="M120.09,200.85c.81-.08,1.39-.82,1.29-1.63l-1.43-11.84c-.1-.79-.81-1.35-1.61-1.27-9.26.91-21.49.06-29.92-8.26-7.44-7.34-10.48-19.48-8.79-35.09,5.05-46.62-21.14-42.8-21.19-42.8-7.5.03-14.06,3-19.54,8.69,2.81-16.74,6.25-35.1,10.2-52.25.18-.78-.31-1.56-1.09-1.74l-11.61-2.7c-.79-.18-1.57.3-1.75,1.09-10.7,46.48-19.53,101.52-20.7,111.1-.1.8.48,1.53,1.28,1.62,2.82.33,10.88,1.06,13.7,1.39.8.09,1.52-.47,1.62-1.26.29-2.35.93-7.48,1.89-14.57.02-.07.04-.13.05-.2,1.99-11.96,8.65-36.27,22.47-36.32h.08c6.12,0,12.47,2.15,9.84,26.36-2.77,25.61,5.6,39.83,13.12,47.25,8.5,8.4,20.64,12.82,34.79,12.82,2.38,0,4.82-.13,7.31-.38ZM195.2,197.31c1.28.91,3.07.57,3.94-.75l5.81-8.83c.82-1.25.5-2.91-.71-3.79-13.26-9.59-20.09-26.06-20.45-49.24,5.27-5.61,13.87-15.42,21.42-26.99-1.05,7.86-1.56,15.37-1.57,21.74-.02,30,8.43,54.55,27.11,67.86,1.28.91,3.07.57,3.94-.75l5.81-8.83c.82-1.25.5-2.91-.71-3.79-13.26-9.59-20.09-26.06-20.45-49.24,9.53-10.14,29.98-34.04,35.35-57.25,4.2-18.16-2.85-28.43-11.7-30.55-9.66-2.31-17.41,3.5-23.4,13.34-1.84-7.56-6.65-12.02-12.15-13.34-27.25-6.53-39.32,51.56-39.34,82.54,0,2.15.05,4.27.13,6.37-.27.22-.5.49-.68.81-10.43,18.92-27.84,28.93-45.94,26.25-4.62-.68-8.18-2.67-10.58-5.9-1.26-1.7-2.19-3.75-2.81-6.13,2.27.72,4.71,1.06,7.32,1.03,11.43-.19,23.43-10.04,27.31-22.43,2.56-8.16,1.92-16.73-1.72-22.92-2.87-4.89-7.38-8.1-13.06-9.29-6.13-1.28-12.21.02-17.6,3.77-8.6,5.98-15.97,18.28-18.16,32.89-1.99,13.25-.02,24,5.85,31.92,4.76,6.42,12.71,10.49,21.26,11.75,2.73.4,5.44.6,8.13.6,16.39,0,31.75-7.41,43.42-20.68,3.89,17.12,11.78,30.97,24.22,39.83ZM226.38,82.92c4.13-16.66,11.14-21.6,12.96-21.6.07,0,.12,0,.18.02.73.36,2.67,4.31.71,12.77-2.84,12.29-11.2,25.37-19.16,35.68,1.18-8.35,2.95-17.32,5.32-26.88ZM190.83,82.92c4.13-16.66,11.14-21.6,12.96-21.6.07,0,.12,0,.18.02.73.36,2.67,4.31.71,12.77-2.84,12.29-11.2,25.37-19.16,35.68,1.18-8.35,2.95-17.32,5.32-26.88ZM109.5,128.92c2.11-7.18,5.55-13.02,9.46-15.74,2.03-1.42,3.96-1.87,6.08-1.43,1.55.32,2.56,1.02,3.3,2.27,1.48,2.52,1.62,6.94.36,10.98-1.91,6.1-8.42,11.94-13.39,12.03-3.26.06-4.34-1.27-4.7-1.71-1.2-1.45-1.61-3.91-1.07-6.4h-.03ZM239.2,139.74c.36,17.72,12.99,29.13,29.34,29.13h.19c12.21-.07,23.13-7.14,29.96-19.41,7.8-13.99,8.46-31.6,1.61-42.81-5.08-8.32-13.73-12.7-24.32-12.34-21.11.73-37.21,24.52-36.79,45.42ZM276.5,109.14c5.24-.18,8.87,1.54,11.14,5.25,4.06,6.64,3.24,18.61-1.91,27.85-2.44,4.38-7.91,11.74-17.08,11.79h-.12c-8.2,0-12.45-4.91-12.65-14.59-.33-16.65,10.8-29.96,20.61-30.29ZM324.54,194.97c1.12,1.17,2.95,1.28,4.21.27,7.03-5.67,20.27-19.94,20.27-31.65,0,0,0,0,0,0,.28-5.85-3.02-11.24-8.41-12.89-6.49-2-13.53,2.16-15.72,9.28-2.19,7.12,1.29,14.52,7.78,16.52.12.04.25.06.37.09-2.52,5.91-6.31,10.58-9.1,13.38-1.2,1.2-1.21,3.14-.03,4.36l.64.66ZM135.84,253.7c-10.46-4.29-12.53-6.96-12.26-11.31.71-11.82,15.71-13.45,19.38-13.45,1.94,0,2.68.29,3.03.64,1.04,1.04.34,4-1.7,10.78-.46,1.54.46,3.15,2.03,3.52l9.44,2.2c1.45.34,2.92-.53,3.32-1.97,3.17-11.42,2.87-18.87-.89-23.96-4.48-6.06-12.01-6.06-15.22-6.06-.22,0-.45,0-.68.01h0c-29.91-.01-48.15,29.36-61.47,50.82-.63,1.01-.32,2.34.69,2.97l8.93,5.56c1.01.63,2.34.32,2.97-.69h0c4.57-7.37,9.73-16.51,15.7-24.38,2.2,11.3,12.94,15.71,21.09,19.05,10.67,4.37,16.52,6.7,16.18,13.92-.23,4.75-7.59,13.93-32.15,15.27-9.15.5-19.48-.37-29.78-2.7-1.47-.33-2.92.58-3.29,2.04l-2.25,9c-.38,1.52.58,3.05,2.11,3.39,9.62,2.19,19.13,3.26,28.04,3.26,34.82,0,51.44-15.71,52.15-30.49.88-18.36-15.66-23.45-25.37-27.43ZM285.24,298.96c-13.34-6.69-18.84-19.78-20.18-34.41,7.64-8.07,27.72-31.2,32.62-56.09,3.78-19.21-3.06-28.02-10.73-29.86-24.15-5.8-37,47.63-37.95,73.85-.12,3.35-.09,6.58.07,9.72-.26.22-.49.49-.66.81-5.89,10.99-11.65,16.34-17.58,16.34-2.26,0-3.25-.8-3.79-1.4-1.59-1.76-2.28-5.39-1.83-9.7,1.18-11.45,7.8-27.61,12.1-37.69.6-1.41-.06-3.04-1.47-3.64l-8.53-3.66c-1.42-.61-3.05.05-3.66,1.47-1.28,3.01-2.72,6.42-4.16,10.07-3.77-8.29-10.96-13.01-20.23-12.64-17.17.68-29.23,23.03-28.53,42.65.56,15.59,9.56,26.42,21.67,26.42.3,0,.6,0,.9-.02,6.98-.28,13.38-4.28,18.49-10.6.97,2.79,2.38,5.25,4.21,7.28,3.72,4.12,8.84,6.3,14.81,6.3,9.37,0,16.6-5.15,21.9-11.12,4.52,13.89,13.06,24.32,25.5,30.38.93.46,2.06.08,2.51-.86l5.34-11.17c.43-.9.07-2-.83-2.44ZM271.3,215.33c4.26-14.96,10.44-21.9,11.87-21.9s1.29,5.35-.05,12.16c-2.49,12.68-10.11,25.29-17.21,34.83,1.26-9.14,3.34-17.88,5.39-25.09ZM194.04,275.43c-4.71.16-7.26-3.59-7.54-11.2-.45-12,6.36-26.94,14.96-27.27,5.7-.21,8.75,3.71,9.05,11.66.45,11.85-6.8,26.45-16.46,26.81ZM411.1,250.86l8.12,2.38c1.74.51,3.58-.53,4-2.29,2.29-9.66,1.42-17.02-2.65-22.45-4.38-5.84-11.9-8.69-22.98-8.69-6.9,0-20.42,4-28.92,12.88-3.87,4.04-6.29,8.71-7.15,13.71-.13.22-.24.44-.31.69-5.83,19.5-20.89,38.63-37.55,38.63h-.12c-3.38-.02-8.11-.86-11.45-4.76-1.48-1.73-2.56-3.92-3.21-6.51l5.77.77c14.76,1.94,26.18-8.83,29.83-20.48,2.44-7.8,1.33-16.24-2.91-22.01-3.72-5.06-9.53-7.84-16.38-7.84-12.61,0-29.5,13.34-33.09,34.3-4.29,25.03,11.45,41.38,31.36,41.38h.2c11.83,0,23.8-5.95,33.74-16.76,4.46-4.86,8.38-10.51,11.62-16.67,5.38,4.37,12.68,6.82,19.13,8.97,13.04,4.36,19.22,7.22,19.64,14.52.16,2.82-.58,4.92-2.4,6.83-6.81,7.14-26.88,10.72-59.68,10.63-1.75,0-3.18,1.41-3.2,3.16l-.08,8.46c-.02,1.77,1.42,3.22,3.19,3.22.5,0,.99,0,1.48,0,38.13,0,58.9-4.61,69.02-15.23,4.63-4.85,6.87-11.04,6.48-17.91-1.03-18.15-17.63-23.7-29.75-27.76-11.28-3.77-16.61-6.09-16.83-10.99-.13-2.93.98-5.57,3.39-8.09,5.21-5.45,14.62-8.13,18.19-8.29,6.92-.32,10.34,1.72,11.1,2.74.59.79,1.66,3.23.2,9.66-.38,1.66.58,3.33,2.21,3.8ZM310.32,254.59c3.8-10.5,11.58-14.87,14.86-14.87,2.78,0,3.86,1.02,4.42,1.79,1.43,1.95,1.73,5.57.72,8.79-1.45,4.64-6.32,11.18-13.73,10.21-2.54-.34-4.77-1.47-5.82-2.96-.21-.3-.44-.7-.57-1.25-.13-.56-.07-1.16.13-1.71ZM278.25,137.42c4.56,0,8.26-4.24,8.26-9.48s-3.7-9.48-8.26-9.48-8.26,4.24-8.26,9.48,3.7,9.48,8.26,9.48ZM117.37,279.58c0-5.23-3.7-9.48-8.26-9.48s-8.26,4.24-8.26,9.48,3.7,9.48,8.26,9.48,8.26-4.24,8.26-9.48Z"/></g></g></svg>